<svg xmlns="http://www.w3.org/2000/svg" xmlns:xlink="http://www.w3.org/1999/xlink" xml:space="preserve" version="1.1" style="shape-rendering:geometricPrecision;text-rendering:geometricPrecision;image-rendering:optimizeQuality;" viewBox="0 0 445.34 397.9375" x="0px" y="0px" fill-rule="evenodd" clip-rule="evenodd"><defs><style type="text/css">
   
    .fil0 {fill:black;fill-rule:nonzero}
   
  </style></defs><g><path class="fil0" d="M43.72 0l357.9 0c24.02,0 43.72,19.7 43.72,43.72l0 230.91c0,24.02 -19.7,43.72 -43.72,43.72l-357.9 0c-24.02,0 -43.72,-19.7 -43.72,-43.72l0 -230.91c0,-24.02 19.7,-43.72 43.72,-43.72zm365.24 295.05l-129.43 -133.42c-34.12,23.79 -79.78,23.75 -113.87,-0.09l-129.45 133.45c2.34,0.87 4.87,1.34 7.5,1.34l357.9 0c2.57,0 5.04,-0.45 7.34,-1.28zm-112.49 -147.49l126.58 130.49c0.18,-1.11 0.27,-2.26 0.27,-3.42l0 -230.91c0,-2.53 -0.44,-4.98 -1.24,-7.24l-125.61 111.09zm-274.21 130.3l126.49 -130.4 -125.49 -110.98c-0.8,2.26 -1.24,4.7 -1.24,7.23l0 230.91c0,1.1 0.08,2.17 0.24,3.23zm18.05 -255.57l130.74 115.62c29.38,26.02 73.86,26.02 103.24,0l130.75 -115.62c-1.11,-0.18 -2.25,-0.27 -3.41,-0.27l-357.9 0c-1.16,0 -2.3,0.09 -3.41,0.27z"/></g><text x="0" y="333.35" fill="#000000" font-size="5px" font-weight="bold" font-family="'Helvetica Neue', Helvetica, Arial-Unicode, Arial, Sans-serif">Created by Ainsley Agatha</text><text x="0" y="338.35" fill="#000000" font-size="5px" font-weight="bold" font-family="'Helvetica Neue', Helvetica, Arial-Unicode, Arial, Sans-serif">from the Noun Project</text></svg>